<svg width="199" height="48" viewBox="0 0 199 48" fill="none" xmlns="http://www.w3.org/2000/svg">
<path d="M4.55458 14L0.378578 1.4H2.80858L6.53458 12.794H5.32858L9.19858 1.4H11.3586L15.1206 12.794H13.9506L17.7666 1.4H19.9986L15.8226 14H13.3386L9.90058 3.722H10.5486L7.05658 14H4.55458ZM26.8902 14V12.056L26.7642 11.642V8.24C26.7642 7.58 26.5662 7.07 26.1702 6.71C25.7742 6.338 25.1742 6.152 24.3702 6.152C23.8302 6.152 23.2962 6.236 22.7682 6.404C22.2522 6.572 21.8142 6.806 21.4542 7.106L20.5722 5.468C21.0882 5.072 21.7002 4.778 22.4082 4.586C23.1282 4.382 23.8722 4.28 24.6402 4.28C26.0322 4.28 27.1062 4.616 27.8622 5.288C28.6302 5.948 29.0142 6.974 29.0142 8.366V14H26.8902ZM23.8662 14.126C23.1462 14.126 22.5162 14.006 21.9762 13.766C21.4362 13.514 21.0162 13.172 20.7162 12.74C20.4282 12.296 20.2842 11.798 20.2842 11.246C20.2842 10.706 20.4102 10.22 20.6622 9.788C20.9262 9.356 21.3522 9.014 21.9402 8.762C22.5282 8.51 23.3082 8.384 24.2802 8.384H27.0702V9.878H24.4422C23.6742 9.878 23.1582 10.004 22.8942 10.256C22.6302 10.496 22.4982 10.796 22.4982 11.156C22.4982 11.564 22.6602 11.888 22.9842 12.128C23.3082 12.368 23.7582 12.488 24.3342 12.488C24.8862 12.488 25.3782 12.362 25.8102 12.11C26.2542 11.858 26.5722 11.486 26.7642 10.994L27.1422 12.344C26.9262 12.908 26.5362 13.346 25.9722 13.658C25.4202 13.97 24.7182 14.126 23.8662 14.126ZM37.3558 4.28C38.1238 4.28 38.8078 4.43 39.4078 4.73C40.0198 5.03 40.4998 5.492 40.8478 6.116C41.1958 6.728 41.3698 7.52 41.3698 8.492V14H39.1198V8.78C39.1198 7.928 38.9158 7.292 38.5078 6.872C38.1118 6.452 37.5538 6.242 36.8338 6.242C36.3058 6.242 35.8378 6.35 35.4298 6.566C35.0218 6.782 34.7038 7.106 34.4758 7.538C34.2598 7.958 34.1518 8.492 34.1518 9.14V14H31.9018V4.388H34.0438V6.98L33.6658 6.188C34.0018 5.576 34.4878 5.108 35.1238 4.784C35.7718 4.448 36.5158 4.28 37.3558 4.28ZM47.842 14.126C46.786 14.126 45.97 13.856 45.394 13.316C44.818 12.764 44.53 11.954 44.53 10.886V2.264H46.78V10.832C46.78 11.288 46.894 11.642 47.122 11.894C47.362 12.146 47.692 12.272 48.112 12.272C48.616 12.272 49.036 12.14 49.372 11.876L50.002 13.478C49.738 13.694 49.414 13.856 49.03 13.964C48.646 14.072 48.25 14.126 47.842 14.126ZM42.946 6.26V4.46H49.354V6.26H42.946ZM60.4456 14.126C59.3896 14.126 58.5736 13.856 57.9976 13.316C57.4216 12.764 57.1336 11.954 57.1336 10.886V2.264H59.3836V10.832C59.3836 11.288 59.4976 11.642 59.7256 11.894C59.9656 12.146 60.2956 12.272 60.7156 12.272C61.2196 12.272 61.6396 12.14 61.9756 11.876L62.6056 13.478C62.3416 13.694 62.0176 13.856 61.6336 13.964C61.2496 14.072 60.8536 14.126 60.4456 14.126ZM55.5496 6.26V4.46H61.9576V6.26H55.5496ZM68.4601 14.126C67.4761 14.126 66.6001 13.916 65.8321 13.496C65.0641 13.064 64.4581 12.476 64.0141 11.732C63.5701 10.988 63.3481 10.142 63.3481 9.194C63.3481 8.234 63.5701 7.388 64.0141 6.656C64.4581 5.912 65.0641 5.33 65.8321 4.91C66.6001 4.49 67.4761 4.28 68.4601 4.28C69.4561 4.28 70.3381 4.49 71.1061 4.91C71.8861 5.33 72.4921 5.906 72.9241 6.638C73.3681 7.37 73.5901 8.222 73.5901 9.194C73.5901 10.142 73.3681 10.988 72.9241 11.732C72.4921 12.476 71.8861 13.064 71.1061 13.496C70.3381 13.916 69.4561 14.126 68.4601 14.126ZM68.4601 12.2C69.0121 12.2 69.5041 12.08 69.9361 11.84C70.3681 11.6 70.7041 11.252 70.9441 10.796C71.1961 10.34 71.3221 9.806 71.3221 9.194C71.3221 8.57 71.1961 8.036 70.9441 7.592C70.7041 7.136 70.3681 6.788 69.9361 6.548C69.5041 6.308 69.0181 6.188 68.4781 6.188C67.9261 6.188 67.4341 6.308 67.0021 6.548C66.5821 6.788 66.2461 7.136 65.9941 7.592C65.7421 8.036 65.6161 8.57 65.6161 9.194C65.6161 9.806 65.7421 10.34 65.9941 10.796C66.2461 11.252 66.5821 11.6 67.0021 11.84C67.4341 12.08 67.9201 12.2 68.4601 12.2ZM86.0442 14.126C85.2282 14.126 84.5022 13.946 83.8662 13.586C83.2302 13.226 82.7262 12.686 82.3542 11.966C81.9942 11.234 81.8142 10.31 81.8142 9.194C81.8142 8.066 82.0002 7.142 82.3722 6.422C82.7562 5.702 83.2662 5.168 83.9022 4.82C84.5502 4.46 85.2642 4.28 86.0442 4.28C86.9922 4.28 87.8262 4.484 88.5462 4.892C89.2782 5.3 89.8542 5.87 90.2742 6.602C90.7062 7.334 90.9222 8.198 90.9222 9.194C90.9222 10.19 90.7062 11.054 90.2742 11.786C89.8542 12.518 89.2782 13.094 88.5462 13.514C87.8262 13.922 86.9922 14.126 86.0442 14.126ZM80.7162 14V0.643999H82.9662V6.62L82.7862 9.176L82.8582 11.732V14H80.7162ZM85.7922 12.2C86.3322 12.2 86.8122 12.08 87.2322 11.84C87.6642 11.6 88.0062 11.252 88.2582 10.796C88.5102 10.34 88.6362 9.806 88.6362 9.194C88.6362 8.57 88.5102 8.036 88.2582 7.592C88.0062 7.136 87.6642 6.788 87.2322 6.548C86.8122 6.308 86.3322 6.188 85.7922 6.188C85.2522 6.188 84.7662 6.308 84.3342 6.548C83.9022 6.788 83.5602 7.136 83.3082 7.592C83.0562 8.036 82.9302 8.57 82.9302 9.194C82.9302 9.806 83.0562 10.34 83.3082 10.796C83.5602 11.252 83.9022 11.6 84.3342 11.84C84.7662 12.08 85.2522 12.2 85.7922 12.2ZM97.5741 14.126C96.5061 14.126 95.5701 13.916 94.7661 13.496C93.9741 13.064 93.3561 12.476 92.9121 11.732C92.4801 10.988 92.2641 10.142 92.2641 9.194C92.2641 8.234 92.4741 7.388 92.8941 6.656C93.3261 5.912 93.9141 5.33 94.6581 4.91C95.4141 4.49 96.2721 4.28 97.2321 4.28C98.1681 4.28 99.0021 4.484 99.7341 4.892C100.466 5.3 101.042 5.876 101.462 6.62C101.882 7.364 102.092 8.24 102.092 9.248C102.092 9.344 102.086 9.452 102.074 9.572C102.074 9.692 102.068 9.806 102.056 9.914H94.0461V8.42H100.868L99.9861 8.888C99.9981 8.336 99.8841 7.85 99.6441 7.43C99.4041 7.01 99.0741 6.68 98.6541 6.44C98.2461 6.2 97.7721 6.08 97.2321 6.08C96.6801 6.08 96.1941 6.2 95.7741 6.44C95.3661 6.68 95.0421 7.016 94.8021 7.448C94.5741 7.868 94.4601 8.366 94.4601 8.942V9.302C94.4601 9.878 94.5921 10.388 94.8561 10.832C95.1201 11.276 95.4921 11.618 95.9721 11.858C96.4521 12.098 97.0041 12.218 97.6281 12.218C98.1681 12.218 98.6541 12.134 99.0861 11.966C99.5181 11.798 99.9021 11.534 100.238 11.174L101.444 12.56C101.012 13.064 100.466 13.454 99.8061 13.73C99.1581 13.994 98.4141 14.126 97.5741 14.126ZM115.15 14V12.056L115.024 11.642V8.24C115.024 7.58 114.826 7.07 114.43 6.71C114.034 6.338 113.434 6.152 112.63 6.152C112.09 6.152 111.556 6.236 111.028 6.404C110.512 6.572 110.074 6.806 109.714 7.106L108.832 5.468C109.348 5.072 109.96 4.778 110.668 4.586C111.388 4.382 112.132 4.28 112.9 4.28C114.292 4.28 115.366 4.616 116.122 5.288C116.89 5.948 117.274 6.974 117.274 8.366V14H115.15ZM112.126 14.126C111.406 14.126 110.776 14.006 110.236 13.766C109.696 13.514 109.276 13.172 108.976 12.74C108.688 12.296 108.544 11.798 108.544 11.246C108.544 10.706 108.67 10.22 108.922 9.788C109.186 9.356 109.612 9.014 110.2 8.762C110.788 8.51 111.568 8.384 112.54 8.384H115.33V9.878H112.702C111.934 9.878 111.418 10.004 111.154 10.256C110.89 10.496 110.758 10.796 110.758 11.156C110.758 11.564 110.92 11.888 111.244 12.128C111.568 12.368 112.018 12.488 112.594 12.488C113.146 12.488 113.638 12.362 114.07 12.11C114.514 11.858 114.832 11.486 115.024 10.994L115.402 12.344C115.186 12.908 114.796 13.346 114.232 13.658C113.68 13.97 112.978 14.126 112.126 14.126ZM129.258 14.18C128.274 14.18 127.332 14.042 126.432 13.766C125.532 13.478 124.818 13.112 124.29 12.668L125.1 10.85C125.604 11.246 126.228 11.576 126.972 11.84C127.716 12.104 128.478 12.236 129.258 12.236C129.918 12.236 130.452 12.164 130.86 12.02C131.268 11.876 131.568 11.684 131.76 11.444C131.952 11.192 132.048 10.91 132.048 10.598C132.048 10.214 131.91 9.908 131.634 9.68C131.358 9.44 130.998 9.254 130.554 9.122C130.122 8.978 129.636 8.846 129.096 8.726C128.568 8.606 128.034 8.468 127.494 8.312C126.966 8.144 126.48 7.934 126.036 7.682C125.604 7.418 125.25 7.07 124.974 6.638C124.698 6.206 124.56 5.654 124.56 4.982C124.56 4.298 124.74 3.674 125.1 3.11C125.472 2.534 126.03 2.078 126.774 1.742C127.53 1.394 128.484 1.22 129.636 1.22C130.392 1.22 131.142 1.316 131.886 1.508C132.63 1.7 133.278 1.976 133.83 2.336L133.092 4.154C132.528 3.818 131.946 3.572 131.346 3.416C130.746 3.248 130.17 3.164 129.618 3.164C128.97 3.164 128.442 3.242 128.034 3.398C127.638 3.554 127.344 3.758 127.152 4.01C126.972 4.262 126.882 4.55 126.882 4.874C126.882 5.258 127.014 5.57 127.278 5.81C127.554 6.038 127.908 6.218 128.34 6.35C128.784 6.482 129.276 6.614 129.816 6.746C130.356 6.866 130.89 7.004 131.418 7.16C131.958 7.316 132.444 7.52 132.876 7.772C133.32 8.024 133.674 8.366 133.938 8.798C134.214 9.23 134.352 9.776 134.352 10.436C134.352 11.108 134.166 11.732 133.794 12.308C133.434 12.872 132.876 13.328 132.12 13.676C131.364 14.012 130.41 14.18 129.258 14.18ZM141.784 14.126C141.004 14.126 140.29 13.946 139.642 13.586C139.006 13.226 138.496 12.686 138.112 11.966C137.74 11.234 137.554 10.31 137.554 9.194C137.554 8.066 137.734 7.142 138.094 6.422C138.466 5.702 138.97 5.168 139.606 4.82C140.242 4.46 140.968 4.28 141.784 4.28C142.732 4.28 143.566 4.484 144.286 4.892C145.018 5.3 145.594 5.87 146.014 6.602C146.446 7.334 146.662 8.198 146.662 9.194C146.662 10.19 146.446 11.06 146.014 11.804C145.594 12.536 145.018 13.106 144.286 13.514C143.566 13.922 142.732 14.126 141.784 14.126ZM136.456 17.492V4.388H138.598V6.656L138.526 9.212L138.706 11.768V17.492H136.456ZM141.532 12.2C142.072 12.2 142.552 12.08 142.972 11.84C143.404 11.6 143.746 11.252 143.998 10.796C144.25 10.34 144.376 9.806 144.376 9.194C144.376 8.57 144.25 8.036 143.998 7.592C143.746 7.136 143.404 6.788 142.972 6.548C142.552 6.308 142.072 6.188 141.532 6.188C140.992 6.188 140.506 6.308 140.074 6.548C139.642 6.788 139.3 7.136 139.048 7.592C138.796 8.036 138.67 8.57 138.67 9.194C138.67 9.806 138.796 10.34 139.048 10.796C139.3 11.252 139.642 11.6 140.074 11.84C140.506 12.08 140.992 12.2 141.532 12.2ZM153.314 14.126C152.246 14.126 151.31 13.916 150.506 13.496C149.714 13.064 149.096 12.476 148.652 11.732C148.22 10.988 148.004 10.142 148.004 9.194C148.004 8.234 148.214 7.388 148.634 6.656C149.066 5.912 149.654 5.33 150.398 4.91C151.154 4.49 152.012 4.28 152.972 4.28C153.908 4.28 154.742 4.484 155.474 4.892C156.206 5.3 156.782 5.876 157.202 6.62C157.622 7.364 157.832 8.24 157.832 9.248C157.832 9.344 157.826 9.452 157.814 9.572C157.814 9.692 157.808 9.806 157.796 9.914H149.786V8.42H156.608L155.726 8.888C155.738 8.336 155.624 7.85 155.384 7.43C155.144 7.01 154.814 6.68 154.394 6.44C153.986 6.2 153.512 6.08 152.972 6.08C152.42 6.08 151.934 6.2 151.514 6.44C151.106 6.68 150.782 7.016 150.542 7.448C150.314 7.868 150.2 8.366 150.2 8.942V9.302C150.2 9.878 150.332 10.388 150.596 10.832C150.86 11.276 151.232 11.618 151.712 11.858C152.192 12.098 152.744 12.218 153.368 12.218C153.908 12.218 154.394 12.134 154.826 11.966C155.258 11.798 155.642 11.534 155.978 11.174L157.184 12.56C156.752 13.064 156.206 13.454 155.546 13.73C154.898 13.994 154.154 14.126 153.314 14.126ZM165.652 14V12.056L165.526 11.642V8.24C165.526 7.58 165.328 7.07 164.932 6.71C164.536 6.338 163.936 6.152 163.132 6.152C162.592 6.152 162.058 6.236 161.53 6.404C161.014 6.572 160.576 6.806 160.216 7.106L159.334 5.468C159.85 5.072 160.462 4.778 161.17 4.586C161.89 4.382 162.634 4.28 163.402 4.28C164.794 4.28 165.868 4.616 166.624 5.288C167.392 5.948 167.776 6.974 167.776 8.366V14H165.652ZM162.628 14.126C161.908 14.126 161.278 14.006 160.738 13.766C160.198 13.514 159.778 13.172 159.478 12.74C159.19 12.296 159.046 11.798 159.046 11.246C159.046 10.706 159.172 10.22 159.424 9.788C159.688 9.356 160.114 9.014 160.702 8.762C161.29 8.51 162.07 8.384 163.042 8.384H165.832V9.878H163.204C162.436 9.878 161.92 10.004 161.656 10.256C161.392 10.496 161.26 10.796 161.26 11.156C161.26 11.564 161.422 11.888 161.746 12.128C162.07 12.368 162.52 12.488 163.096 12.488C163.648 12.488 164.14 12.362 164.572 12.11C165.016 11.858 165.334 11.486 165.526 10.994L165.904 12.344C165.688 12.908 165.298 13.346 164.734 13.658C164.182 13.97 163.48 14.126 162.628 14.126ZM172.5 11.858L172.554 9.032L177.576 4.388H180.276L176.01 8.672L174.822 9.662L172.5 11.858ZM170.664 14V0.643999H172.914V14H170.664ZM177.918 14L174.408 9.662L175.83 7.862L180.654 14H177.918ZM186.238 14.126C185.17 14.126 184.234 13.916 183.43 13.496C182.638 13.064 182.02 12.476 181.576 11.732C181.144 10.988 180.928 10.142 180.928 9.194C180.928 8.234 181.138 7.388 181.558 6.656C181.99 5.912 182.578 5.33 183.322 4.91C184.078 4.49 184.936 4.28 185.896 4.28C186.832 4.28 187.666 4.484 188.398 4.892C189.13 5.3 189.706 5.876 190.126 6.62C190.546 7.364 190.756 8.24 190.756 9.248C190.756 9.344 190.75 9.452 190.738 9.572C190.738 9.692 190.732 9.806 190.72 9.914H182.71V8.42H189.532L188.65 8.888C188.662 8.336 188.548 7.85 188.308 7.43C188.068 7.01 187.738 6.68 187.318 6.44C186.91 6.2 186.436 6.08 185.896 6.08C185.344 6.08 184.858 6.2 184.438 6.44C184.03 6.68 183.706 7.016 183.466 7.448C183.238 7.868 183.124 8.366 183.124 8.942V9.302C183.124 9.878 183.256 10.388 183.52 10.832C183.784 11.276 184.156 11.618 184.636 11.858C185.116 12.098 185.668 12.218 186.292 12.218C186.832 12.218 187.318 12.134 187.75 11.966C188.182 11.798 188.566 11.534 188.902 11.174L190.108 12.56C189.676 13.064 189.13 13.454 188.47 13.73C187.822 13.994 187.078 14.126 186.238 14.126ZM192.917 14V4.388H195.059V7.034L194.807 6.26C195.095 5.612 195.545 5.12 196.157 4.784C196.781 4.448 197.555 4.28 198.479 4.28V6.422C198.383 6.398 198.293 6.386 198.209 6.386C198.125 6.374 198.041 6.368 197.957 6.368C197.105 6.368 196.427 6.62 195.923 7.124C195.419 7.616 195.167 8.354 195.167 9.338V14H192.917ZM95.8143 44L101.484 31.4H103.788L109.476 44H107.028L102.15 32.642H103.086L98.2263 44H95.8143ZM98.4243 41.084L99.0543 39.248H105.858L106.488 41.084H98.4243ZM116.191 44.126C115.411 44.126 114.697 43.946 114.049 43.586C113.413 43.226 112.903 42.686 112.519 41.966C112.147 41.234 111.961 40.31 111.961 39.194C111.961 38.066 112.141 37.142 112.501 36.422C112.873 35.702 113.377 35.168 114.013 34.82C114.649 34.46 115.375 34.28 116.191 34.28C117.139 34.28 117.973 34.484 118.693 34.892C119.425 35.3 120.001 35.87 120.421 36.602C120.853 37.334 121.069 38.198 121.069 39.194C121.069 40.19 120.853 41.06 120.421 41.804C120.001 42.536 119.425 43.106 118.693 43.514C117.973 43.922 117.139 44.126 116.191 44.126ZM110.863 47.492V34.388H113.005V36.656L112.933 39.212L113.113 41.768V47.492H110.863ZM115.939 42.2C116.479 42.2 116.959 42.08 117.379 41.84C117.811 41.6 118.153 41.252 118.405 40.796C118.657 40.34 118.783 39.806 118.783 39.194C118.783 38.57 118.657 38.036 118.405 37.592C118.153 37.136 117.811 36.788 117.379 36.548C116.959 36.308 116.479 36.188 115.939 36.188C115.399 36.188 114.913 36.308 114.481 36.548C114.049 36.788 113.707 37.136 113.455 37.592C113.203 38.036 113.077 38.57 113.077 39.194C113.077 39.806 113.203 40.34 113.455 40.796C113.707 41.252 114.049 41.6 114.481 41.84C114.913 42.08 115.399 42.2 115.939 42.2ZM128.531 44.126C127.751 44.126 127.037 43.946 126.389 43.586C125.753 43.226 125.243 42.686 124.859 41.966C124.487 41.234 124.301 40.31 124.301 39.194C124.301 38.066 124.481 37.142 124.841 36.422C125.213 35.702 125.717 35.168 126.353 34.82C126.989 34.46 127.715 34.28 128.531 34.28C129.479 34.28 130.313 34.484 131.033 34.892C131.765 35.3 132.341 35.87 132.761 36.602C133.193 37.334 133.409 38.198 133.409 39.194C133.409 40.19 133.193 41.06 132.761 41.804C132.341 42.536 131.765 43.106 131.033 43.514C130.313 43.922 129.479 44.126 128.531 44.126ZM123.203 47.492V34.388H125.345V36.656L125.273 39.212L125.453 41.768V47.492H123.203ZM128.279 42.2C128.819 42.2 129.299 42.08 129.719 41.84C130.151 41.6 130.493 41.252 130.745 40.796C130.997 40.34 131.123 39.806 131.123 39.194C131.123 38.57 130.997 38.036 130.745 37.592C130.493 37.136 130.151 36.788 129.719 36.548C129.299 36.308 128.819 36.188 128.279 36.188C127.739 36.188 127.253 36.308 126.821 36.548C126.389 36.788 126.047 37.136 125.795 37.592C125.543 38.036 125.417 38.57 125.417 39.194C125.417 39.806 125.543 40.34 125.795 40.796C126.047 41.252 126.389 41.6 126.821 41.84C127.253 42.08 127.739 42.2 128.279 42.2ZM135.542 44V30.644H137.792V44H135.542ZM141.538 47.618C141.07 47.618 140.602 47.54 140.134 47.384C139.666 47.228 139.276 47.012 138.964 46.736L139.864 45.08C140.092 45.284 140.35 45.446 140.638 45.566C140.926 45.686 141.22 45.746 141.52 45.746C141.928 45.746 142.258 45.644 142.51 45.44C142.762 45.236 142.996 44.894 143.212 44.414L143.77 43.154L143.95 42.884L147.586 34.388H149.746L145.246 44.774C144.946 45.494 144.61 46.064 144.238 46.484C143.878 46.904 143.47 47.198 143.014 47.366C142.57 47.534 142.078 47.618 141.538 47.618ZM143.518 44.342L139.18 34.388H141.52L145.048 42.686L143.518 44.342ZM165.198 31.4H167.538V44H165.198V31.4ZM158.682 44H156.342V31.4H158.682V44ZM165.378 38.6H158.484V36.602H165.378V38.6ZM175.217 44.126C174.149 44.126 173.213 43.916 172.409 43.496C171.617 43.064 170.999 42.476 170.555 41.732C170.123 40.988 169.907 40.142 169.907 39.194C169.907 38.234 170.117 37.388 170.537 36.656C170.969 35.912 171.557 35.33 172.301 34.91C173.057 34.49 173.915 34.28 174.875 34.28C175.811 34.28 176.645 34.484 177.377 34.892C178.109 35.3 178.685 35.876 179.105 36.62C179.525 37.364 179.735 38.24 179.735 39.248C179.735 39.344 179.729 39.452 179.717 39.572C179.717 39.692 179.711 39.806 179.699 39.914H171.689V38.42H178.511L177.629 38.888C177.641 38.336 177.527 37.85 177.287 37.43C177.047 37.01 176.717 36.68 176.297 36.44C175.889 36.2 175.415 36.08 174.875 36.08C174.323 36.08 173.837 36.2 173.417 36.44C173.009 36.68 172.685 37.016 172.445 37.448C172.217 37.868 172.103 38.366 172.103 38.942V39.302C172.103 39.878 172.235 40.388 172.499 40.832C172.763 41.276 173.135 41.618 173.615 41.858C174.095 42.098 174.647 42.218 175.271 42.218C175.811 42.218 176.297 42.134 176.729 41.966C177.161 41.798 177.545 41.534 177.881 41.174L179.087 42.56C178.655 43.064 178.109 43.454 177.449 43.73C176.801 43.994 176.057 44.126 175.217 44.126ZM181.896 44V34.388H184.038V37.034L183.786 36.26C184.074 35.612 184.524 35.12 185.136 34.784C185.76 34.448 186.534 34.28 187.458 34.28V36.422C187.362 36.398 187.272 36.386 187.188 36.386C187.104 36.374 187.02 36.368 186.936 36.368C186.084 36.368 185.406 36.62 184.902 37.124C184.398 37.616 184.146 38.354 184.146 39.338V44H181.896ZM193.797 44.126C192.729 44.126 191.793 43.916 190.989 43.496C190.197 43.064 189.579 42.476 189.135 41.732C188.703 40.988 188.487 40.142 188.487 39.194C188.487 38.234 188.697 37.388 189.117 36.656C189.549 35.912 190.137 35.33 190.881 34.91C191.637 34.49 192.495 34.28 193.455 34.28C194.391 34.28 195.225 34.484 195.957 34.892C196.689 35.3 197.265 35.876 197.685 36.62C198.105 37.364 198.315 38.24 198.315 39.248C198.315 39.344 198.309 39.452 198.297 39.572C198.297 39.692 198.291 39.806 198.279 39.914H190.269V38.42H197.091L196.209 38.888C196.221 38.336 196.107 37.85 195.867 37.43C195.627 37.01 195.297 36.68 194.877 36.44C194.469 36.2 193.995 36.08 193.455 36.08C192.903 36.08 192.417 36.2 191.997 36.44C191.589 36.68 191.265 37.016 191.025 37.448C190.797 37.868 190.683 38.366 190.683 38.942V39.302C190.683 39.878 190.815 40.388 191.079 40.832C191.343 41.276 191.715 41.618 192.195 41.858C192.675 42.098 193.227 42.218 193.851 42.218C194.391 42.218 194.877 42.134 195.309 41.966C195.741 41.798 196.125 41.534 196.461 41.174L197.667 42.56C197.235 43.064 196.689 43.454 196.029 43.73C195.381 43.994 194.637 44.126 193.797 44.126Z" fill="white"/>
</svg>
