<svg width="1384" height="315" viewBox="0 0 1384 315" fill="none" xmlns="http://www.w3.org/2000/svg">
<rect width="1384" height="315" rx="12" fill="url(#paint0_linear_6_390)"/>
<path d="M51.592 129V92.648H37.256V84.2H76.296V92.648H61.96V129H51.592ZM102.099 94.056C104.829 94.056 107.261 94.6107 109.395 95.72C111.571 96.7867 113.277 98.4507 114.515 100.712C115.752 102.931 116.371 105.789 116.371 109.288V129H106.387V110.824C106.387 108.051 105.768 106.003 104.531 104.68C103.336 103.357 101.629 102.696 99.4105 102.696C97.8318 102.696 96.4025 103.037 95.1225 103.72C93.8852 104.36 92.9038 105.363 92.1785 106.728C91.4958 108.093 91.1545 109.843 91.1545 111.976V129H81.1705V81.512H91.1545V104.104L88.9145 101.224C90.1518 98.92 91.9225 97.1493 94.2265 95.912C96.5305 94.6747 99.1545 94.056 102.099 94.056ZM125.421 129V94.568H135.405V129H125.421ZM130.413 89.768C128.578 89.768 127.085 89.2347 125.933 88.168C124.781 87.1013 124.205 85.7787 124.205 84.2C124.205 82.6213 124.781 81.2987 125.933 80.232C127.085 79.1653 128.578 78.632 130.413 78.632C132.247 78.632 133.741 79.144 134.893 80.168C136.045 81.1493 136.621 82.4293 136.621 84.008C136.621 85.672 136.045 87.0587 134.893 88.168C133.783 89.2347 132.29 89.768 130.413 89.768ZM156.255 129.512C153.311 129.512 150.473 129.171 147.743 128.488C145.055 127.763 142.921 126.867 141.343 125.8L144.671 118.632C146.249 119.613 148.105 120.424 150.239 121.064C152.415 121.661 154.548 121.96 156.639 121.96C158.943 121.96 160.564 121.683 161.503 121.128C162.484 120.573 162.975 119.805 162.975 118.824C162.975 118.013 162.591 117.416 161.823 117.032C161.097 116.605 160.116 116.285 158.878 116.072C157.641 115.859 156.276 115.645 154.783 115.432C153.332 115.219 151.86 114.941 150.367 114.6C148.873 114.216 147.508 113.661 146.271 112.936C145.033 112.211 144.031 111.229 143.263 109.992C142.537 108.755 142.174 107.155 142.174 105.192C142.174 103.016 142.793 101.096 144.031 99.432C145.311 97.768 147.145 96.4667 149.535 95.528C151.924 94.5467 154.783 94.056 158.111 94.056C160.457 94.056 162.847 94.312 165.279 94.824C167.711 95.336 169.737 96.0827 171.359 97.064L168.031 104.168C166.367 103.187 164.681 102.525 162.975 102.184C161.311 101.8 159.689 101.608 158.111 101.608C155.892 101.608 154.271 101.907 153.247 102.504C152.223 103.101 151.711 103.869 151.711 104.808C151.711 105.661 152.073 106.301 152.799 106.728C153.567 107.155 154.569 107.496 155.807 107.752C157.044 108.008 158.388 108.243 159.839 108.456C161.332 108.627 162.825 108.904 164.319 109.288C165.812 109.672 167.156 110.227 168.351 110.952C169.588 111.635 170.591 112.595 171.359 113.832C172.127 115.027 172.511 116.605 172.511 118.568C172.511 120.701 171.871 122.6 170.591 124.264C169.311 125.885 167.455 127.165 165.023 128.104C162.633 129.043 159.711 129.512 156.255 129.512ZM212.22 129.768C208.636 129.768 205.201 129.299 201.916 128.36C198.63 127.379 195.985 126.12 193.98 124.584L197.5 116.776C199.42 118.141 201.681 119.272 204.284 120.168C206.929 121.021 209.596 121.448 212.284 121.448C214.332 121.448 215.974 121.256 217.212 120.872C218.492 120.445 219.43 119.869 220.028 119.144C220.625 118.419 220.924 117.587 220.924 116.648C220.924 115.453 220.454 114.515 219.516 113.832C218.577 113.107 217.34 112.531 215.804 112.104C214.268 111.635 212.561 111.208 210.684 110.824C208.849 110.397 206.993 109.885 205.116 109.288C203.281 108.691 201.596 107.923 200.06 106.984C198.524 106.045 197.265 104.808 196.284 103.272C195.345 101.736 194.876 99.7733 194.876 97.384C194.876 94.824 195.558 92.4987 196.924 90.408C198.332 88.2747 200.422 86.5893 203.196 85.352C206.012 84.072 209.532 83.432 213.756 83.432C216.572 83.432 219.345 83.7733 222.076 84.456C224.806 85.096 227.217 86.0773 229.308 87.4L226.108 95.272C224.017 94.0773 221.926 93.2027 219.836 92.648C217.745 92.0507 215.697 91.752 213.692 91.752C211.686 91.752 210.044 91.9867 208.764 92.456C207.484 92.9253 206.566 93.544 206.012 94.312C205.457 95.0373 205.18 95.8907 205.18 96.872C205.18 98.024 205.649 98.9627 206.588 99.688C207.526 100.371 208.764 100.925 210.3 101.352C211.836 101.779 213.521 102.205 215.356 102.632C217.233 103.059 219.089 103.549 220.924 104.104C222.801 104.659 224.508 105.405 226.044 106.344C227.58 107.283 228.817 108.52 229.756 110.056C230.737 111.592 231.228 113.533 231.228 115.88C231.228 118.397 230.524 120.701 229.116 122.792C227.708 124.883 225.596 126.568 222.78 127.848C220.006 129.128 216.486 129.768 212.22 129.768ZM254.696 129.512C250.771 129.512 247.315 128.744 244.328 127.208C241.384 125.672 239.101 123.581 237.48 120.936C235.859 118.248 235.048 115.197 235.048 111.784C235.048 108.328 235.837 105.277 237.416 102.632C239.037 99.944 241.235 97.8533 244.008 96.36C246.781 94.824 249.917 94.056 253.416 94.056C256.787 94.056 259.816 94.7813 262.504 96.232C265.235 97.64 267.389 99.688 268.968 102.376C270.547 105.021 271.336 108.2 271.336 111.912C271.336 112.296 271.315 112.744 271.272 113.256C271.229 113.725 271.187 114.173 271.144 114.6H243.176V108.776H265.896L262.056 110.504C262.056 108.712 261.693 107.155 260.968 105.832C260.243 104.509 259.24 103.485 257.96 102.76C256.68 101.992 255.187 101.608 253.48 101.608C251.773 101.608 250.259 101.992 248.936 102.76C247.656 103.485 246.653 104.531 245.928 105.896C245.203 107.219 244.84 108.797 244.84 110.632V112.168C244.84 114.045 245.245 115.709 246.056 117.16C246.909 118.568 248.083 119.656 249.576 120.424C251.112 121.149 252.904 121.512 254.952 121.512C256.787 121.512 258.387 121.235 259.752 120.68C261.16 120.125 262.44 119.293 263.592 118.184L268.904 123.944C267.325 125.736 265.341 127.123 262.952 128.104C260.563 129.043 257.811 129.512 254.696 129.512ZM298.166 129V122.28L297.526 120.808V108.776C297.526 106.643 296.864 104.979 295.542 103.784C294.262 102.589 292.278 101.992 289.59 101.992C287.755 101.992 285.942 102.291 284.15 102.888C282.4 103.443 280.907 104.211 279.67 105.192L276.086 98.216C277.963 96.8933 280.224 95.8693 282.87 95.144C285.515 94.4187 288.203 94.056 290.934 94.056C296.182 94.056 300.256 95.2933 303.158 97.768C306.059 100.243 307.51 104.104 307.51 109.352V129H298.166ZM287.67 129.512C284.982 129.512 282.678 129.064 280.758 128.168C278.838 127.229 277.366 125.971 276.342 124.392C275.318 122.813 274.806 121.043 274.806 119.08C274.806 117.032 275.296 115.24 276.278 113.704C277.302 112.168 278.902 110.973 281.078 110.12C283.254 109.224 286.091 108.776 289.59 108.776H298.742V114.6H290.678C288.331 114.6 286.71 114.984 285.814 115.752C284.96 116.52 284.534 117.48 284.534 118.632C284.534 119.912 285.024 120.936 286.006 121.704C287.03 122.429 288.416 122.792 290.166 122.792C291.83 122.792 293.323 122.408 294.646 121.64C295.968 120.829 296.928 119.656 297.526 118.12L299.062 122.728C298.336 124.947 297.014 126.632 295.094 127.784C293.174 128.936 290.699 129.512 287.67 129.512ZM328.13 129.512C325.186 129.512 322.348 129.171 319.618 128.488C316.93 127.763 314.796 126.867 313.218 125.8L316.546 118.632C318.124 119.613 319.98 120.424 322.114 121.064C324.29 121.661 326.423 121.96 328.514 121.96C330.818 121.96 332.439 121.683 333.378 121.128C334.359 120.573 334.85 119.805 334.85 118.824C334.85 118.013 334.466 117.416 333.698 117.032C332.972 116.605 331.991 116.285 330.753 116.072C329.516 115.859 328.151 115.645 326.658 115.432C325.207 115.219 323.735 114.941 322.242 114.6C320.748 114.216 319.383 113.661 318.146 112.936C316.908 112.211 315.906 111.229 315.138 109.992C314.412 108.755 314.049 107.155 314.049 105.192C314.049 103.016 314.668 101.096 315.906 99.432C317.186 97.768 319.02 96.4667 321.41 95.528C323.799 94.5467 326.658 94.056 329.986 94.056C332.332 94.056 334.722 94.312 337.154 94.824C339.586 95.336 341.612 96.0827 343.234 97.064L339.906 104.168C338.242 103.187 336.556 102.525 334.85 102.184C333.186 101.8 331.564 101.608 329.986 101.608C327.767 101.608 326.146 101.907 325.122 102.504C324.098 103.101 323.586 103.869 323.586 104.808C323.586 105.661 323.948 106.301 324.674 106.728C325.442 107.155 326.444 107.496 327.682 107.752C328.919 108.008 330.263 108.243 331.714 108.456C333.207 108.627 334.7 108.904 336.194 109.288C337.687 109.672 339.031 110.227 340.226 110.952C341.463 111.635 342.466 112.595 343.234 113.832C344.002 115.027 344.386 116.605 344.386 118.568C344.386 120.701 343.746 122.6 342.466 124.264C341.186 125.885 339.33 127.165 336.898 128.104C334.508 129.043 331.586 129.512 328.13 129.512ZM366.93 129.512C363.26 129.512 359.996 128.744 357.138 127.208C354.322 125.672 352.082 123.581 350.418 120.936C348.796 118.248 347.986 115.197 347.986 111.784C347.986 108.328 348.796 105.277 350.418 102.632C352.082 99.944 354.322 97.8533 357.138 96.36C359.996 94.824 363.26 94.056 366.93 94.056C370.556 94.056 373.799 94.824 376.658 96.36C379.516 97.8533 381.756 99.9227 383.378 102.568C384.999 105.213 385.81 108.285 385.81 111.784C385.81 115.197 384.999 118.248 383.378 120.936C381.756 123.581 379.516 125.672 376.658 127.208C373.799 128.744 370.556 129.512 366.93 129.512ZM366.93 121.32C368.594 121.32 370.087 120.936 371.41 120.168C372.732 119.4 373.778 118.312 374.546 116.904C375.314 115.453 375.698 113.747 375.698 111.784C375.698 109.779 375.314 108.072 374.546 106.664C373.778 105.256 372.732 104.168 371.41 103.4C370.087 102.632 368.594 102.248 366.93 102.248C365.266 102.248 363.772 102.632 362.45 103.4C361.127 104.168 360.06 105.256 359.25 106.664C358.482 108.072 358.098 109.779 358.098 111.784C358.098 113.747 358.482 115.453 359.25 116.904C360.06 118.312 361.127 119.4 362.45 120.168C363.772 120.936 365.266 121.32 366.93 121.32ZM413.411 94.056C416.142 94.056 418.574 94.6107 420.707 95.72C422.883 96.7867 424.59 98.4507 425.827 100.712C427.064 102.931 427.683 105.789 427.683 109.288V129H417.699V110.824C417.699 108.051 417.08 106.003 415.843 104.68C414.648 103.357 412.942 102.696 410.723 102.696C409.144 102.696 407.715 103.037 406.435 103.72C405.198 104.36 404.216 105.363 403.491 106.728C402.808 108.093 402.467 109.843 402.467 111.976V129H392.483V94.568H402.019V104.104L400.227 101.224C401.464 98.92 403.235 97.1493 405.539 95.912C407.843 94.6747 410.467 94.056 413.411 94.056ZM42.312 231V186.2H64.2C69.832 186.2 74.056 187.267 76.872 189.4C79.7307 191.533 81.16 194.349 81.16 197.848C81.16 200.195 80.584 202.243 79.432 203.992C78.28 205.699 76.7013 207.021 74.696 207.96C72.6907 208.899 70.3867 209.368 67.784 209.368L69 206.744C71.816 206.744 74.312 207.213 76.488 208.152C78.664 209.048 80.3493 210.392 81.544 212.184C82.7813 213.976 83.4 216.173 83.4 218.776C83.4 222.616 81.8853 225.624 78.856 227.8C75.8267 229.933 71.368 231 65.48 231H42.312ZM52.616 223.192H64.712C67.4 223.192 69.4267 222.765 70.792 221.912C72.2 221.016 72.904 219.608 72.904 217.688C72.904 215.811 72.2 214.424 70.792 213.528C69.4267 212.589 67.4 212.12 64.712 212.12H51.848V204.568H62.92C65.4373 204.568 67.3573 204.141 68.68 203.288C70.0453 202.392 70.728 201.048 70.728 199.256C70.728 197.507 70.0453 196.205 68.68 195.352C67.3573 194.456 65.4373 194.008 62.92 194.008H52.616V223.192ZM90.5455 231V196.568H100.082V206.296L98.7375 203.48C99.7615 201.048 101.404 199.213 103.666 197.976C105.927 196.696 108.679 196.056 111.922 196.056V205.272C111.495 205.229 111.111 205.208 110.77 205.208C110.428 205.165 110.066 205.144 109.682 205.144C106.951 205.144 104.732 205.933 103.026 207.512C101.362 209.048 100.53 211.459 100.53 214.744V231H90.5455ZM117.921 231V196.568H127.905V231H117.921ZM122.913 191.768C121.078 191.768 119.585 191.235 118.433 190.168C117.281 189.101 116.705 187.779 116.705 186.2C116.705 184.621 117.281 183.299 118.433 182.232C119.585 181.165 121.078 180.632 122.913 180.632C124.747 180.632 126.241 181.144 127.393 182.168C128.545 183.149 129.121 184.429 129.121 186.008C129.121 187.672 128.545 189.059 127.393 190.168C126.283 191.235 124.79 191.768 122.913 191.768ZM158.099 196.056C160.829 196.056 163.261 196.611 165.395 197.72C167.571 198.787 169.277 200.451 170.515 202.712C171.752 204.931 172.371 207.789 172.371 211.288V231H162.387V212.824C162.387 210.051 161.768 208.003 160.531 206.68C159.336 205.357 157.629 204.696 155.411 204.696C153.832 204.696 152.403 205.037 151.123 205.72C149.885 206.36 148.904 207.363 148.179 208.728C147.496 210.093 147.155 211.843 147.155 213.976V231H137.171V196.568H146.707V206.104L144.915 203.224C146.152 200.92 147.923 199.149 150.227 197.912C152.531 196.675 155.155 196.056 158.099 196.056ZM197.863 243.928C194.62 243.928 191.484 243.523 188.455 242.712C185.468 241.944 182.972 240.771 180.967 239.192L184.935 232.024C186.385 233.219 188.22 234.157 190.439 234.84C192.7 235.565 194.919 235.928 197.095 235.928C200.636 235.928 203.196 235.139 204.775 233.56C206.396 231.981 207.207 229.635 207.207 226.52V221.336L207.847 212.696L207.719 203.992V196.568H217.191V225.24C217.191 231.64 215.527 236.355 212.199 239.384C208.871 242.413 204.092 243.928 197.863 243.928ZM196.327 229.336C193.127 229.336 190.225 228.653 187.623 227.288C185.063 225.88 182.993 223.939 181.415 221.464C179.879 218.947 179.111 216.024 179.111 212.696C179.111 209.325 179.879 206.403 181.415 203.928C182.993 201.411 185.063 199.469 187.623 198.104C190.225 196.739 193.127 196.056 196.327 196.056C199.228 196.056 201.788 196.653 204.007 197.848C206.225 199 207.953 200.813 209.191 203.288C210.428 205.72 211.047 208.856 211.047 212.696C211.047 216.493 210.428 219.629 209.191 222.104C207.953 224.536 206.225 226.349 204.007 227.544C201.788 228.739 199.228 229.336 196.327 229.336ZM198.311 221.144C200.06 221.144 201.617 220.803 202.983 220.12C204.348 219.395 205.415 218.392 206.183 217.112C206.951 215.832 207.335 214.36 207.335 212.696C207.335 210.989 206.951 209.517 206.183 208.28C205.415 207 204.348 206.019 202.983 205.336C201.617 204.611 200.06 204.248 198.311 204.248C196.561 204.248 195.004 204.611 193.639 205.336C192.273 206.019 191.185 207 190.375 208.28C189.607 209.517 189.223 210.989 189.223 212.696C189.223 214.36 189.607 215.832 190.375 217.112C191.185 218.392 192.273 219.395 193.639 220.12C195.004 220.803 196.561 221.144 198.311 221.144ZM238.067 231.512C235.123 231.512 232.286 231.171 229.555 230.488C226.867 229.763 224.734 228.867 223.155 227.8L226.483 220.632C228.062 221.613 229.918 222.424 232.051 223.064C234.227 223.661 236.36 223.96 238.451 223.96C240.755 223.96 242.376 223.683 243.315 223.128C244.296 222.573 244.787 221.805 244.787 220.824C244.787 220.013 244.403 219.416 243.635 219.032C242.91 218.605 241.928 218.285 240.691 218.072C239.454 217.859 238.088 217.645 236.595 217.432C235.144 217.219 233.672 216.941 232.179 216.6C230.686 216.216 229.32 215.661 228.083 214.936C226.846 214.211 225.843 213.229 225.075 211.992C224.35 210.755 223.987 209.155 223.987 207.192C223.987 205.016 224.606 203.096 225.843 201.432C227.123 199.768 228.958 198.467 231.347 197.528C233.736 196.547 236.595 196.056 239.923 196.056C242.27 196.056 244.659 196.312 247.091 196.824C249.523 197.336 251.55 198.083 253.171 199.064L249.843 206.168C248.179 205.187 246.494 204.525 244.787 204.184C243.123 203.8 241.502 203.608 239.923 203.608C237.704 203.608 236.083 203.907 235.059 204.504C234.035 205.101 233.523 205.869 233.523 206.808C233.523 207.661 233.886 208.301 234.611 208.728C235.379 209.155 236.382 209.496 237.619 209.752C238.856 210.008 240.2 210.243 241.651 210.456C243.144 210.627 244.638 210.904 246.131 211.288C247.624 211.672 248.968 212.227 250.163 212.952C251.4 213.635 252.403 214.595 253.171 215.832C253.939 217.027 254.323 218.605 254.323 220.568C254.323 222.701 253.683 224.6 252.403 226.264C251.123 227.885 249.267 229.165 246.835 230.104C244.446 231.043 241.523 231.512 238.067 231.512ZM290.448 231V212.696L292.816 218.968L273.104 186.2H284.112L299.216 211.352H292.88L308.048 186.2H318.224L298.512 218.968L300.816 212.696V231H290.448ZM334.43 231.512C330.76 231.512 327.496 230.744 324.638 229.208C321.822 227.672 319.582 225.581 317.918 222.936C316.296 220.248 315.486 217.197 315.486 213.784C315.486 210.328 316.296 207.277 317.918 204.632C319.582 201.944 321.822 199.853 324.638 198.36C327.496 196.824 330.76 196.056 334.43 196.056C338.056 196.056 341.299 196.824 344.158 198.36C347.016 199.853 349.256 201.923 350.878 204.568C352.499 207.213 353.31 210.285 353.31 213.784C353.31 217.197 352.499 220.248 350.878 222.936C349.256 225.581 347.016 227.672 344.158 229.208C341.299 230.744 338.056 231.512 334.43 231.512ZM334.43 223.32C336.094 223.32 337.587 222.936 338.91 222.168C340.232 221.4 341.278 220.312 342.046 218.904C342.814 217.453 343.198 215.747 343.198 213.784C343.198 211.779 342.814 210.072 342.046 208.664C341.278 207.256 340.232 206.168 338.91 205.4C337.587 204.632 336.094 204.248 334.43 204.248C332.766 204.248 331.272 204.632 329.95 205.4C328.627 206.168 327.56 207.256 326.75 208.664C325.982 210.072 325.598 211.779 325.598 213.784C325.598 215.747 325.982 217.453 326.75 218.904C327.56 220.312 328.627 221.4 329.95 222.168C331.272 222.936 332.766 223.32 334.43 223.32ZM374.511 231.512C371.652 231.512 369.092 230.957 366.831 229.848C364.612 228.739 362.884 227.053 361.647 224.792C360.41 222.488 359.791 219.565 359.791 216.024V196.568H369.775V214.552C369.775 217.411 370.372 219.523 371.567 220.888C372.804 222.211 374.532 222.872 376.751 222.872C378.287 222.872 379.652 222.552 380.847 221.912C382.042 221.229 382.98 220.205 383.663 218.84C384.346 217.432 384.687 215.683 384.687 213.592V196.568H394.671V231H385.199V221.528L386.927 224.28C385.775 226.669 384.068 228.483 381.807 229.72C379.588 230.915 377.156 231.512 374.511 231.512Z" fill="white"/>
<path d="M534.584 80V74.96L547.544 62.72C548.568 61.792 549.32 60.96 549.8 60.224C550.28 59.488 550.6 58.816 550.76 58.208C550.952 57.6 551.048 57.04 551.048 56.528C551.048 55.184 550.584 54.16 549.656 53.456C548.76 52.72 547.432 52.352 545.672 52.352C544.264 52.352 542.952 52.624 541.736 53.168C540.552 53.712 539.544 54.56 538.712 55.712L533.048 52.064C534.328 50.144 536.12 48.624 538.424 47.504C540.728 46.384 543.384 45.824 546.392 45.824C548.888 45.824 551.064 46.24 552.92 47.072C554.808 47.872 556.264 49.008 557.288 50.48C558.344 51.952 558.872 53.712 558.872 55.76C558.872 56.848 558.728 57.936 558.44 59.024C558.184 60.08 557.64 61.2 556.808 62.384C556.008 63.568 554.824 64.896 553.256 66.368L542.504 76.496L541.016 73.664H559.976V80H534.584ZM578.89 80V46.4H594.154C597.802 46.4 601.018 47.104 603.802 48.512C606.586 49.888 608.762 51.824 610.33 54.32C611.898 56.816 612.682 59.776 612.682 63.2C612.682 66.592 611.898 69.552 610.33 72.08C608.762 74.576 606.586 76.528 603.802 77.936C601.018 79.312 597.802 80 594.154 80H578.89ZM586.666 73.616H593.77C596.01 73.616 597.946 73.2 599.578 72.368C601.242 71.504 602.522 70.288 603.418 68.72C604.346 67.152 604.81 65.312 604.81 63.2C604.81 61.056 604.346 59.216 603.418 57.68C602.522 56.112 601.242 54.912 599.578 54.08C597.946 53.216 596.01 52.784 593.77 52.784H586.666V73.616ZM613.662 80L628.638 46.4H636.318L651.342 80H643.182L630.894 50.336H633.966L621.63 80H613.662ZM621.15 72.8L623.214 66.896H640.494L642.606 72.8H621.15ZM661.117 80V66.272L662.893 70.976L648.109 46.4H656.365L667.693 65.264H662.941L674.317 46.4H681.949L667.165 70.976L668.893 66.272V80H661.117Z" fill="white"/>
<path d="M734.056 175V144.28L737.416 147.64H727.336V141.4H741.832V175H734.056ZM762.069 175.576C759.317 175.576 756.853 174.904 754.677 173.56C752.501 172.184 750.789 170.2 749.541 167.608C748.293 165.016 747.669 161.88 747.669 158.2C747.669 154.52 748.293 151.384 749.541 148.792C750.789 146.2 752.501 144.232 754.677 142.888C756.853 141.512 759.317 140.824 762.069 140.824C764.853 140.824 767.317 141.512 769.461 142.888C771.637 144.232 773.349 146.2 774.597 148.792C775.845 151.384 776.469 154.52 776.469 158.2C776.469 161.88 775.845 165.016 774.597 167.608C773.349 170.2 771.637 172.184 769.461 173.56C767.317 174.904 764.853 175.576 762.069 175.576ZM762.069 169C763.381 169 764.517 168.632 765.477 167.896C766.469 167.16 767.237 165.992 767.781 164.392C768.357 162.792 768.645 160.728 768.645 158.2C768.645 155.672 768.357 153.608 767.781 152.008C767.237 150.408 766.469 149.24 765.477 148.504C764.517 147.768 763.381 147.4 762.069 147.4C760.789 147.4 759.653 147.768 758.661 148.504C757.701 149.24 756.933 150.408 756.357 152.008C755.813 153.608 755.541 155.672 755.541 158.2C755.541 160.728 755.813 162.792 756.357 164.392C756.933 165.992 757.701 167.16 758.661 167.896C759.653 168.632 760.789 169 762.069 169ZM789.796 169.288V147.112H795.988V169.288H789.796ZM781.492 161.128V155.272H804.34V161.128H781.492ZM835.868 175.576C833.18 175.576 830.604 175.224 828.14 174.52C825.676 173.784 823.692 172.84 822.188 171.688L824.828 165.832C826.268 166.856 827.964 167.704 829.916 168.376C831.9 169.016 833.9 169.336 835.916 169.336C837.452 169.336 838.684 169.192 839.612 168.904C840.572 168.584 841.276 168.152 841.724 167.608C842.172 167.064 842.396 166.44 842.396 165.736C842.396 164.84 842.044 164.136 841.34 163.624C840.636 163.08 839.708 162.648 838.556 162.328C837.404 161.976 836.124 161.656 834.716 161.368C833.34 161.048 831.948 160.664 830.54 160.216C829.164 159.768 827.9 159.192 826.748 158.488C825.596 157.784 824.652 156.856 823.916 155.704C823.212 154.552 822.86 153.08 822.86 151.288C822.86 149.368 823.372 147.624 824.396 146.056C825.452 144.456 827.02 143.192 829.1 142.264C831.212 141.304 833.852 140.824 837.02 140.824C839.132 140.824 841.212 141.08 843.26 141.592C845.308 142.072 847.116 142.808 848.684 143.8L846.284 149.704C844.716 148.808 843.148 148.152 841.58 147.736C840.012 147.288 838.476 147.064 836.972 147.064C835.468 147.064 834.236 147.24 833.276 147.592C832.316 147.944 831.628 148.408 831.212 148.984C830.796 149.528 830.588 150.168 830.588 150.904C830.588 151.768 830.94 152.472 831.644 153.016C832.348 153.528 833.276 153.944 834.428 154.264C835.58 154.584 836.844 154.904 838.22 155.224C839.628 155.544 841.02 155.912 842.396 156.328C843.804 156.744 845.084 157.304 846.236 158.008C847.388 158.712 848.316 159.64 849.02 160.792C849.756 161.944 850.124 163.4 850.124 165.16C850.124 167.048 849.596 168.776 848.54 170.344C847.484 171.912 845.9 173.176 843.788 174.136C841.708 175.096 839.068 175.576 835.868 175.576ZM855.437 175V141.4H869.981C872.989 141.4 875.581 141.896 877.757 142.888C879.933 143.848 881.613 145.24 882.797 147.064C883.981 148.888 884.573 151.064 884.573 153.592C884.573 156.088 883.981 158.248 882.797 160.072C881.613 161.896 879.933 163.304 877.757 164.296C875.581 165.256 872.989 165.736 869.981 165.736H859.757L863.213 162.232V175H855.437ZM863.213 163.096L859.757 159.4H869.549C871.949 159.4 873.741 158.888 874.925 157.864C876.109 156.84 876.701 155.416 876.701 153.592C876.701 151.736 876.109 150.296 874.925 149.272C873.741 148.248 871.949 147.736 869.549 147.736H859.757L863.213 144.04V163.096ZM897.277 154.936H913.453V160.984H897.277V154.936ZM897.853 168.76H916.141V175H890.125V141.4H915.517V147.64H897.853V168.76ZM917.912 175L932.888 141.4H940.568L955.592 175H947.432L935.144 145.336H938.216L925.88 175H917.912ZM925.4 167.8L927.464 161.896H944.744L946.856 167.8H925.4ZM966.038 167.32L965.606 158.344L981.686 141.4H990.326L975.83 157L971.51 161.608L966.038 167.32ZM959.078 175V141.4H966.806V175H959.078ZM982.07 175L970.118 160.36L975.206 154.84L991.142 175H982.07ZM1001.76 154.936H1017.94V160.984H1001.76V154.936ZM1002.34 168.76H1020.62V175H994.609V141.4H1020V147.64H1002.34V168.76ZM1026.81 175V141.4H1041.36C1044.36 141.4 1046.96 141.896 1049.13 142.888C1051.31 143.848 1052.99 145.24 1054.17 147.064C1055.36 148.888 1055.95 151.064 1055.95 153.592C1055.95 156.088 1055.36 158.248 1054.17 160.072C1052.99 161.864 1051.31 163.24 1049.13 164.2C1046.96 165.16 1044.36 165.64 1041.36 165.64H1031.13L1034.59 162.232V175H1026.81ZM1048.17 175L1039.77 162.808H1048.08L1056.57 175H1048.17ZM1034.59 163.096L1031.13 159.448H1040.92C1043.32 159.448 1045.12 158.936 1046.3 157.912C1047.48 156.856 1048.08 155.416 1048.08 153.592C1048.08 151.736 1047.48 150.296 1046.3 149.272C1045.12 148.248 1043.32 147.736 1040.92 147.736H1031.13L1034.59 144.04V163.096Z" fill="white"/>
<path d="M1031.9 95.576C1028.82 95.576 1026.15 94.936 1023.88 93.656C1021.64 92.376 1019.91 90.504 1018.7 88.04C1017.48 85.576 1016.87 82.536 1016.87 78.92C1016.87 75.048 1017.59 71.768 1019.03 69.08C1020.5 66.392 1022.52 64.344 1025.08 62.936C1027.67 61.528 1030.65 60.824 1034.01 60.824C1035.8 60.824 1037.51 61.016 1039.14 61.4C1040.78 61.784 1042.18 62.36 1043.37 63.128L1040.49 68.84C1039.56 68.2 1038.57 67.768 1037.51 67.544C1036.46 67.288 1035.35 67.16 1034.2 67.16C1031.29 67.16 1028.98 68.04 1027.29 69.8C1025.59 71.56 1024.74 74.168 1024.74 77.624C1024.74 78.2 1024.74 78.84 1024.74 79.544C1024.78 80.248 1024.87 80.952 1025.03 81.656L1022.87 79.64C1023.48 78.392 1024.26 77.352 1025.22 76.52C1026.18 75.656 1027.32 75.016 1028.63 74.6C1029.98 74.152 1031.45 73.928 1033.05 73.928C1035.22 73.928 1037.18 74.36 1038.9 75.224C1040.63 76.088 1042.01 77.304 1043.03 78.872C1044.09 80.44 1044.62 82.28 1044.62 84.392C1044.62 86.664 1044.04 88.648 1042.89 90.344C1041.77 92.008 1040.25 93.304 1038.33 94.232C1036.44 95.128 1034.3 95.576 1031.9 95.576ZM1031.46 89.768C1032.55 89.768 1033.51 89.576 1034.34 89.192C1035.21 88.776 1035.88 88.184 1036.36 87.416C1036.84 86.648 1037.08 85.768 1037.08 84.776C1037.08 83.24 1036.55 82.024 1035.5 81.128C1034.47 80.2 1033.1 79.736 1031.37 79.736C1030.22 79.736 1029.21 79.96 1028.34 80.408C1027.48 80.824 1026.79 81.416 1026.28 82.184C1025.8 82.92 1025.56 83.784 1025.56 84.776C1025.56 85.736 1025.8 86.6 1026.28 87.368C1026.76 88.104 1027.43 88.696 1028.3 89.144C1029.16 89.56 1030.22 89.768 1031.46 89.768ZM1057.08 89.288V67.112H1063.27V89.288H1057.08ZM1048.77 81.128V75.272H1071.62V81.128H1048.77ZM1087.69 95L1102.67 61.4H1110.35L1125.37 95H1117.21L1104.93 65.336H1108L1095.66 95H1087.69ZM1095.18 87.8L1097.25 81.896H1114.53L1116.64 87.8H1095.18ZM1144.47 95.576C1141.88 95.576 1139.46 95.16 1137.22 94.328C1135.01 93.464 1133.09 92.248 1131.46 90.68C1129.83 89.112 1128.55 87.272 1127.62 85.16C1126.73 83.048 1126.28 80.728 1126.28 78.2C1126.28 75.672 1126.73 73.352 1127.62 71.24C1128.55 69.128 1129.83 67.288 1131.46 65.72C1133.13 64.152 1135.06 62.952 1137.27 62.12C1139.48 61.256 1141.89 60.824 1144.52 60.824C1147.43 60.824 1150.05 61.336 1152.39 62.36C1154.76 63.352 1156.74 64.824 1158.34 66.776L1153.35 71.384C1152.2 70.072 1150.92 69.096 1149.51 68.456C1148.1 67.784 1146.57 67.448 1144.9 67.448C1143.33 67.448 1141.89 67.704 1140.58 68.216C1139.27 68.728 1138.13 69.464 1137.17 70.424C1136.21 71.384 1135.46 72.52 1134.92 73.832C1134.41 75.144 1134.15 76.6 1134.15 78.2C1134.15 79.8 1134.41 81.256 1134.92 82.568C1135.46 83.88 1136.21 85.016 1137.17 85.976C1138.13 86.936 1139.27 87.672 1140.58 88.184C1141.89 88.696 1143.33 88.952 1144.9 88.952C1146.57 88.952 1148.1 88.632 1149.51 87.992C1150.92 87.32 1152.2 86.312 1153.35 84.968L1158.34 89.576C1156.74 91.528 1154.76 93.016 1152.39 94.04C1150.05 95.064 1147.41 95.576 1144.47 95.576ZM1170.23 95V67.736H1159.47V61.4H1188.75V67.736H1178V95H1170.23ZM1192.94 95V61.4H1200.71V95H1192.94ZM1218.63 95L1204.13 61.4H1212.53L1225.2 91.16H1220.26L1233.12 61.4H1240.85L1226.31 95H1218.63ZM1243.66 95V61.4H1251.43V95H1243.66ZM1266.37 95V67.736H1255.61V61.4H1284.89V67.736H1274.14V95H1266.37ZM1296.77 95V81.272L1298.55 85.976L1283.77 61.4H1292.02L1303.35 80.264H1298.6L1309.97 61.4H1317.61L1302.82 85.976L1304.55 81.272V95H1296.77Z" fill="white"/>
<path d="M1096.77 247.576C1094.43 247.576 1092.11 247.272 1089.81 246.664C1087.5 246.024 1085.55 245.128 1083.95 243.976L1086.98 238.024C1088.26 238.952 1089.74 239.688 1091.44 240.232C1093.14 240.776 1094.85 241.048 1096.58 241.048C1098.53 241.048 1100.06 240.664 1101.18 239.896C1102.3 239.128 1102.86 238.072 1102.86 236.728C1102.86 235.448 1102.37 234.44 1101.38 233.704C1100.38 232.968 1098.78 232.6 1096.58 232.6H1093.02V227.464L1102.38 216.856L1103.25 219.64H1085.63V213.4H1109.15V218.44L1099.84 229.048L1095.9 226.792H1098.16C1102.29 226.792 1105.41 227.72 1107.52 229.576C1109.63 231.432 1110.69 233.816 1110.69 236.728C1110.69 238.616 1110.19 240.392 1109.2 242.056C1108.21 243.688 1106.69 245.016 1104.64 246.04C1102.59 247.064 1099.97 247.576 1096.77 247.576ZM1123.69 241.288V219.112H1129.88V241.288H1123.69ZM1115.38 233.128V227.272H1138.23V233.128H1115.38ZM1174.8 247.576C1172.21 247.576 1169.79 247.16 1167.55 246.328C1165.34 245.464 1163.42 244.248 1161.79 242.68C1160.16 241.112 1158.88 239.272 1157.95 237.16C1157.05 235.048 1156.61 232.728 1156.61 230.2C1156.61 227.672 1157.05 225.352 1157.95 223.24C1158.88 221.128 1160.16 219.288 1161.79 217.72C1163.45 216.152 1165.39 214.952 1167.6 214.12C1169.81 213.256 1172.22 212.824 1174.85 212.824C1177.76 212.824 1180.38 213.336 1182.72 214.36C1185.09 215.352 1187.07 216.824 1188.67 218.776L1183.68 223.384C1182.53 222.072 1181.25 221.096 1179.84 220.456C1178.43 219.784 1176.89 219.448 1175.23 219.448C1173.66 219.448 1172.22 219.704 1170.91 220.216C1169.6 220.728 1168.46 221.464 1167.5 222.424C1166.54 223.384 1165.79 224.52 1165.25 225.832C1164.73 227.144 1164.48 228.6 1164.48 230.2C1164.48 231.8 1164.73 233.256 1165.25 234.568C1165.79 235.88 1166.54 237.016 1167.5 237.976C1168.46 238.936 1169.6 239.672 1170.91 240.184C1172.22 240.696 1173.66 240.952 1175.23 240.952C1176.89 240.952 1178.43 240.632 1179.84 239.992C1181.25 239.32 1182.53 238.312 1183.68 236.968L1188.67 241.576C1187.07 243.528 1185.09 245.016 1182.72 246.04C1180.38 247.064 1177.74 247.576 1174.8 247.576ZM1193.92 247V213.4H1201.7V240.664H1218.55V247H1193.92ZM1237.44 247.576C1232.68 247.576 1228.95 246.248 1226.26 243.592C1223.57 240.936 1222.23 237.144 1222.23 232.216V213.4H1230V231.928C1230 235.128 1230.66 237.432 1231.97 238.84C1233.28 240.248 1235.12 240.952 1237.49 240.952C1239.86 240.952 1241.7 240.248 1243.01 238.84C1244.32 237.432 1244.98 235.128 1244.98 231.928V213.4H1252.66V232.216C1252.66 237.144 1251.32 240.936 1248.63 243.592C1245.94 246.248 1242.21 247.576 1237.44 247.576ZM1260.34 247V213.4H1276.76C1280.98 213.4 1284.15 214.2 1286.26 215.8C1288.41 217.4 1289.48 219.512 1289.48 222.136C1289.48 223.896 1289.05 225.432 1288.18 226.744C1287.32 228.024 1286.14 229.016 1284.63 229.72C1283.13 230.424 1281.4 230.776 1279.45 230.776L1280.36 228.808C1282.47 228.808 1284.34 229.16 1285.98 229.864C1287.61 230.536 1288.87 231.544 1289.77 232.888C1290.7 234.232 1291.16 235.88 1291.16 237.832C1291.16 240.712 1290.02 242.968 1287.75 244.6C1285.48 246.2 1282.14 247 1277.72 247H1260.34ZM1268.07 241.144H1277.14C1279.16 241.144 1280.68 240.824 1281.7 240.184C1282.76 239.512 1283.29 238.456 1283.29 237.016C1283.29 235.608 1282.76 234.568 1281.7 233.896C1280.68 233.192 1279.16 232.84 1277.14 232.84H1267.5V227.176H1275.8C1277.69 227.176 1279.13 226.856 1280.12 226.216C1281.14 225.544 1281.66 224.536 1281.66 223.192C1281.66 221.88 1281.14 220.904 1280.12 220.264C1279.13 219.592 1277.69 219.256 1275.8 219.256H1268.07V241.144Z" fill="white"/>
<path d="M478.488 257.944V252.712L494.328 231.4H502.488L486.984 252.712L483.192 251.608H509.64V257.944H478.488ZM496.584 265V257.944L496.824 251.608V245.32H504.168V265H496.584ZM521.843 259.288V237.112H528.035V259.288H521.843ZM513.539 251.128V245.272H536.387V251.128H513.539ZM563.835 265V237.736H553.083V231.4H582.363V237.736H571.611V265H563.835ZM593.699 244.936H609.875V250.984H593.699V244.936ZM594.275 258.76H612.562V265H586.547V231.4H611.939V237.64H594.275V258.76ZM634.83 265.576C632.238 265.576 629.822 265.16 627.582 264.328C625.374 263.464 623.454 262.248 621.822 260.68C620.19 259.112 618.91 257.272 617.982 255.16C617.086 253.048 616.638 250.728 616.638 248.2C616.638 245.672 617.086 243.352 617.982 241.24C618.91 239.128 620.19 237.288 621.822 235.72C623.486 234.152 625.422 232.952 627.63 232.12C629.838 231.256 632.254 230.824 634.878 230.824C637.79 230.824 640.414 231.336 642.75 232.36C645.118 233.352 647.102 234.824 648.702 236.776L643.71 241.384C642.558 240.072 641.278 239.096 639.87 238.456C638.462 237.784 636.926 237.448 635.262 237.448C633.694 237.448 632.254 237.704 630.942 238.216C629.63 238.728 628.494 239.464 627.534 240.424C626.574 241.384 625.822 242.52 625.278 243.832C624.766 245.144 624.51 246.6 624.51 248.2C624.51 249.8 624.766 251.256 625.278 252.568C625.822 253.88 626.574 255.016 627.534 255.976C628.494 256.936 629.63 257.672 630.942 258.184C632.254 258.696 633.694 258.952 635.262 258.952C636.926 258.952 638.462 258.632 639.87 257.992C641.278 257.32 642.558 256.312 643.71 254.968L648.702 259.576C647.102 261.528 645.118 263.016 642.75 264.04C640.414 265.064 637.774 265.576 634.83 265.576ZM676.993 231.4H684.769V265H676.993V231.4ZM661.729 265H653.953V231.4H661.729V265ZM677.569 251.224H661.153V244.648H677.569V251.224ZM692.718 265V231.4H699.15L718.974 255.592H715.854V231.4H723.534V265H717.15L697.278 240.808H700.398V265H692.718ZM747.804 265.576C745.148 265.576 742.684 265.144 740.412 264.28C738.172 263.416 736.22 262.2 734.556 260.632C732.924 259.064 731.644 257.224 730.716 255.112C729.82 253 729.372 250.696 729.372 248.2C729.372 245.704 729.82 243.4 730.716 241.288C731.644 239.176 732.94 237.336 734.604 235.768C736.268 234.2 738.22 232.984 740.46 232.12C742.7 231.256 745.132 230.824 747.756 230.824C750.412 230.824 752.844 231.256 755.052 232.12C757.292 232.984 759.228 234.2 760.86 235.768C762.524 237.336 763.82 239.176 764.748 241.288C765.676 243.368 766.14 245.672 766.14 248.2C766.14 250.696 765.676 253.016 764.748 255.16C763.82 257.272 762.524 259.112 760.86 260.68C759.228 262.216 757.292 263.416 755.052 264.28C752.844 265.144 750.428 265.576 747.804 265.576ZM747.756 258.952C749.26 258.952 750.636 258.696 751.884 258.184C753.164 257.672 754.284 256.936 755.244 255.976C756.204 255.016 756.94 253.88 757.452 252.568C757.996 251.256 758.268 249.8 758.268 248.2C758.268 246.6 757.996 245.144 757.452 243.832C756.94 242.52 756.204 241.384 755.244 240.424C754.316 239.464 753.212 238.728 751.932 238.216C750.652 237.704 749.26 237.448 747.756 237.448C746.252 237.448 744.86 237.704 743.58 238.216C742.332 238.728 741.228 239.464 740.268 240.424C739.308 241.384 738.556 242.52 738.012 243.832C737.5 245.144 737.244 246.6 737.244 248.2C737.244 249.768 737.5 251.224 738.012 252.568C738.556 253.88 739.292 255.016 740.22 255.976C741.18 256.936 742.3 257.672 743.58 258.184C744.86 258.696 746.252 258.952 747.756 258.952ZM771.984 265V231.4H779.76V258.664H796.608V265H771.984ZM816.71 265.576C814.054 265.576 811.59 265.144 809.318 264.28C807.078 263.416 805.126 262.2 803.462 260.632C801.83 259.064 800.55 257.224 799.622 255.112C798.726 253 798.278 250.696 798.278 248.2C798.278 245.704 798.726 243.4 799.622 241.288C800.55 239.176 801.846 237.336 803.51 235.768C805.174 234.2 807.126 232.984 809.366 232.12C811.606 231.256 814.038 230.824 816.662 230.824C819.318 230.824 821.75 231.256 823.958 232.12C826.198 232.984 828.134 234.2 829.766 235.768C831.43 237.336 832.726 239.176 833.654 241.288C834.582 243.368 835.046 245.672 835.046 248.2C835.046 250.696 834.582 253.016 833.654 255.16C832.726 257.272 831.43 259.112 829.766 260.68C828.134 262.216 826.198 263.416 823.958 264.28C821.75 265.144 819.334 265.576 816.71 265.576ZM816.662 258.952C818.166 258.952 819.542 258.696 820.79 258.184C822.07 257.672 823.19 256.936 824.15 255.976C825.11 255.016 825.846 253.88 826.358 252.568C826.902 251.256 827.174 249.8 827.174 248.2C827.174 246.6 826.902 245.144 826.358 243.832C825.846 242.52 825.11 241.384 824.15 240.424C823.222 239.464 822.118 238.728 820.838 238.216C819.558 237.704 818.166 237.448 816.662 237.448C815.158 237.448 813.766 237.704 812.486 238.216C811.238 238.728 810.134 239.464 809.174 240.424C808.214 241.384 807.462 242.52 806.918 243.832C806.406 245.144 806.15 246.6 806.15 248.2C806.15 249.768 806.406 251.224 806.918 252.568C807.462 253.88 808.198 255.016 809.126 255.976C810.086 256.936 811.206 257.672 812.486 258.184C813.766 258.696 815.158 258.952 816.662 258.952ZM857.114 265.576C854.458 265.576 852.01 265.16 849.77 264.328C847.562 263.464 845.626 262.248 843.962 260.68C842.33 259.112 841.05 257.272 840.122 255.16C839.226 253.048 838.778 250.728 838.778 248.2C838.778 245.672 839.226 243.352 840.122 241.24C841.05 239.128 842.346 237.288 844.01 235.72C845.674 234.152 847.626 232.952 849.866 232.12C852.106 231.256 854.57 230.824 857.258 230.824C860.234 230.824 862.906 231.32 865.274 232.312C867.674 233.304 869.69 234.744 871.322 236.632L866.33 241.24C865.114 239.96 863.786 239.016 862.346 238.408C860.906 237.768 859.338 237.448 857.642 237.448C856.01 237.448 854.522 237.704 853.178 238.216C851.834 238.728 850.666 239.464 849.674 240.424C848.714 241.384 847.962 242.52 847.418 243.832C846.906 245.144 846.65 246.6 846.65 248.2C846.65 249.768 846.906 251.208 847.418 252.52C847.962 253.832 848.714 254.984 849.674 255.976C850.666 256.936 851.818 257.672 853.13 258.184C854.474 258.696 855.946 258.952 857.546 258.952C859.082 258.952 860.57 258.712 862.01 258.232C863.482 257.72 864.906 256.872 866.282 255.688L870.698 261.304C868.874 262.68 866.746 263.736 864.314 264.472C861.914 265.208 859.514 265.576 857.114 265.576ZM863.594 260.296V247.672H870.698V261.304L863.594 260.296ZM886.273 265V251.272L888.049 255.976L873.265 231.4H881.522L892.85 250.264H888.098L899.474 231.4H907.106L892.322 255.976L894.05 251.272V265H886.273Z" fill="white"/>
<defs>
<linearGradient id="paint0_linear_6_390" x1="790.229" y1="-4.62621e-07" x2="789.146" y2="315.001" gradientUnits="userSpaceOnUse">
<stop stop-color="#7005F9"/>
<stop offset="1" stop-color="#2B0161" stop-opacity="0.72"/>
</linearGradient>
</defs>
</svg>
